<svg xmlns="http://www.w3.org/2000/svg" xmlns:xlink="http://www.w3.org/1999/xlink" viewBox="0 0 32 32">
    <path id="chevron-right-a" d="M19.1692339,17.2477064 L4.72903955,31.4862385 C4.38168054,31.8287466 3.95988868,32 3.46366169,32 C2.9674347,32 2.54564284,31.8287466 2.19828383,31.4862385 L0.56073601,29.8715596 C0.213377003,29.5290516 0.0272920238,29.1131502 0.00248107181,28.6238532 C-0.0223298802,28.1345562 0.138943011,27.7186548 0.486302018,27.3761468 L12.0235707,16 L0.486302018,4.62385321 C0.138943011,4.28134519 -0.0223298802,3.8654438 0.00248107181,3.37614679 C0.0272920238,2.88684978 0.213377003,2.47094839 0.56073601,2.12844037 L2.19828383,0.513761468 C2.54564284,0.171253449 2.9674347,0 3.46366169,0 C3.95988868,0 4.38168054,0.171253449 4.72903955,0.513761468 L19.1692339,14.7522936 C19.5662149,15.0948016 19.7647059,15.510703 19.7647059,16 C19.7647059,16.489297 19.5662149,16.9051984 19.1692339,17.2477064 Z"/>
</svg>
